<svg width="1600" height="520" viewBox="0 0 1600 520" fill="none" xmlns="http://www.w3.org/2000/svg" role="img" aria-labelledby="title desc">
  <title id="title">AEGIS Design System banner</title>
  <desc id="desc">Banner styled like the AEGIS interface, with HUD panels, tabs, data cards, and tactical map motifs.</desc>
  <defs>
    <linearGradient id="bg" x1="160" y1="40" x2="1440" y2="480" gradientUnits="userSpaceOnUse">
      <stop stop-color="#050505"/>
      <stop offset="0.45" stop-color="#0a0a0a"/>
      <stop offset="1" stop-color="#0d1117"/>
    </linearGradient>
    <linearGradient id="panelGlow" x1="240" y1="104" x2="1360" y2="416" gradientUnits="userSpaceOnUse">
      <stop stop-color="#00f3ff" stop-opacity="0.20"/>
      <stop offset="1" stop-color="#00f3ff" stop-opacity="0.03"/>
    </linearGradient>
    <linearGradient id="accentLine" x1="224" y1="104" x2="760" y2="104" gradientUnits="userSpaceOnUse">
      <stop stop-color="#00f3ff"/>
      <stop offset="1" stop-color="#00f3ff" stop-opacity="0"/>
    </linearGradient>
    <pattern id="grid" width="30" height="30" patternUnits="userSpaceOnUse">
      <path d="M30 0H0V30" stroke="#00f3ff" stroke-opacity="0.08"/>
    </pattern>
    <pattern id="scanlines" width="6" height="6" patternUnits="userSpaceOnUse">
      <rect width="6" height="3" fill="#000000" fill-opacity="0"/>
      <rect y="3" width="6" height="3" fill="#000000" fill-opacity="0.12"/>
    </pattern>
    <filter id="softGlow" x="-50%" y="-50%" width="200%" height="200%">
      <feGaussianBlur stdDeviation="10" result="blur"/>
      <feMerge>
        <feMergeNode in="blur"/>
        <feMergeNode in="SourceGraphic"/>
      </feMerge>
    </filter>
  </defs>

  <rect width="1600" height="520" rx="24" fill="url(#bg)"/>
  <rect width="1600" height="520" rx="24" fill="url(#grid)"/>
  <rect width="1600" height="520" rx="24" fill="url(#scanlines)" opacity="0.55"/>

  <rect x="92" y="70" width="1416" height="380" rx="18" fill="#0a0a0a" stroke="#1a1a1a" stroke-width="2"/>
  <rect x="108" y="86" width="1384" height="348" rx="12" fill="#0d1117"/>
  <rect x="108" y="86" width="1384" height="348" rx="12" fill="url(#panelGlow)"/>

  <path d="M92 70H312" stroke="#00f3ff" stroke-width="4"/>
  <path d="M92 70V146" stroke="#00f3ff" stroke-width="4"/>
  <path d="M1508 450H1288" stroke="#00f3ff" stroke-width="4"/>
  <path d="M1508 450V374" stroke="#00f3ff" stroke-width="4"/>

  <rect x="136" y="108" width="444" height="36" rx="6" fill="#0a0a0a" stroke="#1a1a1a"/>

  <text x="154" y="182" fill="#00f3ff" font-family="JetBrains Mono, monospace" font-size="18" letter-spacing="6">AEGIS // DESIGN SYSTEM</text>
  <text x="154" y="258" fill="#E2E8F0" font-family="Orbitron, sans-serif" font-size="72" font-weight="700" letter-spacing="8">TACTICAL UI</text>
  <path d="M154 274H760" stroke="url(#accentLine)" stroke-width="3"/>
  <text x="154" y="318" fill="#CBD5E1" font-family="Space Grotesk, sans-serif" font-size="26" font-weight="500">
    Typed components, Storybook docs, browser tests, themes, dashboards.
  </text>

  <rect x="154" y="352" width="214" height="34" rx="4" fill="#0a0a0a" stroke="#1a1a1a"/>
  <path d="M154 352H198" stroke="#00f3ff" stroke-width="2"/>
  <circle cx="176" cy="369" r="5" fill="#00f3ff"/>
  <text x="192" y="375" fill="#CBD5E1" font-family="JetBrains Mono, monospace" font-size="14" letter-spacing="1.5">REACT 19</text>

  <rect x="384" y="352" width="228" height="34" rx="4" fill="#0a0a0a" stroke="#1a1a1a"/>
  <path d="M384 352H428" stroke="#facc15" stroke-width="2"/>
  <circle cx="406" cy="369" r="5" fill="#facc15"/>
  <text x="422" y="375" fill="#CBD5E1" font-family="JetBrains Mono, monospace" font-size="14" letter-spacing="1.5">STORYBOOK 10</text>

  <rect x="628" y="352" width="244" height="34" rx="4" fill="#0a0a0a" stroke="#1a1a1a"/>
  <path d="M628 352H672" stroke="#ff003c" stroke-width="2"/>
  <circle cx="650" cy="369" r="5" fill="#ff003c"/>
  <text x="666" y="375" fill="#CBD5E1" font-family="JetBrains Mono, monospace" font-size="14" letter-spacing="1.5">VITEST + CI</text>

  <circle cx="1336" cy="198" r="72" fill="#00f3ff" fill-opacity="0.05"/>
  <circle cx="1336" cy="198" r="48" fill="#00f3ff" fill-opacity="0.05"/>
  <circle cx="1336" cy="198" r="16" fill="#00f3ff" filter="url(#softGlow)"/>
  <path d="M1238 198H1434" stroke="#00f3ff" stroke-opacity="0.18" stroke-width="2"/>
  <path d="M1336 100V296" stroke="#00f3ff" stroke-opacity="0.18" stroke-width="2"/>

  <circle cx="1336" cy="202" r="5" fill="#00f3ff"/>

  <rect x="144" y="402" width="1304" height="18" rx="4" fill="#0a0a0a" stroke="#1a1a1a"/>
  <rect x="154" y="408" width="422" height="6" rx="3" fill="#00f3ff" fill-opacity="0.55"/>
  <rect x="586" y="408" width="246" height="6" rx="3" fill="#facc15" fill-opacity="0.30"/>
  <rect x="842" y="408" width="140" height="6" rx="3" fill="#ff003c" fill-opacity="0.24"/>
</svg>
